<svg width="50" height="51" viewBox="0 0 50 51" fill="none" xmlns="http://www.w3.org/2000/svg">
<path d="M25.0003 46.3334C22.1184 46.3334 19.41 45.7865 16.8753 44.6928C14.3406 43.599 12.1357 42.1147 10.2607 40.2397C8.38574 38.3647 6.90137 36.1598 5.80762 33.6251C4.71387 31.0904 4.16699 28.382 4.16699 25.5001C4.16699 22.6181 4.71387 19.9098 5.80762 17.3751C6.90137 14.8404 8.38574 12.6355 10.2607 10.7605C12.1357 8.8855 14.3406 7.40112 16.8753 6.30737C19.41 5.21362 22.1184 4.66675 25.0003 4.66675C27.8823 4.66675 30.5906 5.21362 33.1253 6.30737C35.66 7.40112 37.8649 8.8855 39.7399 10.7605C41.6149 12.6355 43.0993 14.8404 44.193 17.3751C45.2868 19.9098 45.8337 22.6181 45.8337 25.5001C45.8337 28.382 45.2868 31.0904 44.193 33.6251C43.0993 36.1598 41.6149 38.3647 39.7399 40.2397C37.8649 42.1147 35.66 43.599 33.1253 44.6928C30.5906 45.7865 27.8823 46.3334 25.0003 46.3334ZM25.0003 42.1667C29.6531 42.1667 33.5941 40.5522 36.8232 37.323C40.0524 34.0938 41.667 30.1529 41.667 25.5001C41.667 20.8473 40.0524 16.9063 36.8232 13.6772C33.5941 10.448 29.6531 8.83341 25.0003 8.83341C20.3475 8.83341 16.4066 10.448 13.1774 13.6772C9.94824 16.9063 8.33366 20.8473 8.33366 25.5001C8.33366 30.1529 9.94824 34.0938 13.1774 37.323C16.4066 40.5522 20.3475 42.1667 25.0003 42.1667Z" fill="#1D1B20"/>
<path d="M20 34.25V16.75L33.75 25.5L20 34.25Z" fill="#1D1B20"/>
</svg>
