<svg width="18" height="18" viewBox="0 0 18 18" fill="none" xmlns="http://www.w3.org/2000/svg">
<rect width="18" height="18" rx="9" fill="#D6D6D6"/>
<path d="M3.07031 12C2.96615 12 2.875 11.9635 2.79688 11.8906C2.72396 11.8177 2.6875 11.7292 2.6875 11.625C2.6875 11.5156 2.72396 11.4245 2.79688 11.3516C2.875 11.2786 2.96615 11.2422 3.07031 11.2422H3.89844C3.95052 11.2422 3.97656 11.2188 3.97656 11.1719V7.21875C3.97656 7.16667 3.95052 7.14062 3.89844 7.14062H3.21094C3.13281 7.14062 3.0651 7.11458 3.00781 7.0625C2.95052 7.00521 2.92188 6.9349 2.92188 6.85156C2.92188 6.76823 2.94792 6.69531 3 6.63281C3.05208 6.5651 3.11979 6.51823 3.20312 6.49219C3.46875 6.42969 3.69792 6.35677 3.89062 6.27344C4.13542 6.15885 4.35417 6.10417 4.54688 6.10938C4.64583 6.10938 4.72917 6.14323 4.79688 6.21094C4.86458 6.27865 4.89844 6.36198 4.89844 6.46094V11.1719C4.89844 11.224 4.92448 11.2474 4.97656 11.2422H5.67188C5.77604 11.2422 5.86458 11.2786 5.9375 11.3516C6.01042 11.4245 6.04688 11.5156 6.04688 11.625C6.04688 11.7292 6.01042 11.8177 5.9375 11.8906C5.86458 11.9635 5.77604 12 5.67188 12H3.07031ZM8.99219 11.3984C9.25781 11.3984 9.47656 11.2891 9.64844 11.0703C9.82031 10.8464 9.90625 10.5495 9.90625 10.1797C9.90625 9.79427 9.82292 9.5 9.65625 9.29688C9.49479 9.09375 9.25521 8.99219 8.9375 8.99219C8.54688 8.99219 8.19792 9.20052 7.89062 9.61719C7.85938 9.65885 7.84635 9.70573 7.85156 9.75781C7.90365 10.3047 8.02865 10.7161 8.22656 10.9922C8.42448 11.263 8.67969 11.3984 8.99219 11.3984ZM10.375 6.38281C10.4635 6.44531 10.5104 6.53646 10.5156 6.65625C10.5156 6.75521 10.4818 6.84115 10.4141 6.91406C10.3516 6.98698 10.2656 7.02344 10.1562 7.02344C10.151 7.02344 10.1458 7.02344 10.1406 7.02344C10.0417 7.02344 9.95312 6.9974 9.875 6.94531C9.67188 6.8151 9.46094 6.75 9.24219 6.75C8.83594 6.75 8.50521 6.92188 8.25 7.26562C7.99479 7.60938 7.85417 8.16146 7.82812 8.92188C7.82812 8.93229 7.83333 8.9401 7.84375 8.94531C7.85938 8.95052 7.86979 8.94792 7.875 8.9375C8.04688 8.75 8.24219 8.60156 8.46094 8.49219C8.6849 8.3776 8.90104 8.32031 9.10938 8.32031C9.61979 8.32031 10.0234 8.47917 10.3203 8.79688C10.6172 9.10938 10.7656 9.57031 10.7656 10.1797C10.7656 10.7474 10.5938 11.2109 10.25 11.5703C9.91146 11.9245 9.49479 12.1016 9 12.1016C8.40625 12.1016 7.91927 11.8516 7.53906 11.3516C7.15885 10.8516 6.96875 10.125 6.96875 9.17188C6.96875 8.625 7.02865 8.14323 7.14844 7.72656C7.27344 7.30469 7.4401 6.97135 7.64844 6.72656C7.86198 6.48177 8.09635 6.29948 8.35156 6.17969C8.61198 6.0599 8.89323 6 9.19531 6C9.63802 6 10.0312 6.1276 10.375 6.38281ZM13.2344 12.1016C12.6042 12.1016 12.0547 11.9219 11.5859 11.5625C11.5026 11.5 11.4583 11.4141 11.4531 11.3047C11.4479 11.2943 11.4453 11.2812 11.4453 11.2656C11.4453 11.1771 11.474 11.0964 11.5312 11.0234C11.5885 10.9453 11.6667 10.901 11.7656 10.8906C11.776 10.8906 11.7891 10.8906 11.8047 10.8906C11.888 10.8906 11.9635 10.9167 12.0312 10.9688C12.3594 11.224 12.724 11.3516 13.125 11.3516C13.4635 11.3516 13.7422 11.2396 13.9609 11.0156C14.1849 10.7865 14.2969 10.4792 14.2969 10.0938C14.2969 9.70833 14.1953 9.40885 13.9922 9.19531C13.7891 8.97656 13.5156 8.86719 13.1719 8.86719C12.9271 8.86719 12.6901 8.93229 12.4609 9.0625C12.3828 9.10417 12.3073 9.125 12.2344 9.125C12.1562 9.125 12.0807 9.10156 12.0078 9.05469C11.8568 8.95573 11.7865 8.8151 11.7969 8.63281L11.9141 6.78906C11.9245 6.60156 12 6.44271 12.1406 6.3125C12.2812 6.17708 12.4479 6.10938 12.6406 6.10938H14.5547C14.6589 6.10938 14.75 6.14844 14.8281 6.22656C14.9062 6.29948 14.9453 6.39062 14.9453 6.5C14.9453 6.60938 14.9062 6.70312 14.8281 6.78125C14.75 6.85417 14.6589 6.89062 14.5547 6.89062H12.8359C12.7839 6.89062 12.7552 6.91667 12.75 6.96875L12.625 8.32031C12.625 8.33594 12.6328 8.34896 12.6484 8.35938C12.6641 8.36979 12.6771 8.3724 12.6875 8.36719C12.9323 8.2526 13.1797 8.19531 13.4297 8.19531C13.9557 8.19531 14.3854 8.35417 14.7188 8.67188C15.0521 8.98438 15.2188 9.44792 15.2188 10.0625C15.2188 10.4844 15.125 10.8542 14.9375 11.1719C14.75 11.4844 14.5078 11.7188 14.2109 11.875C13.9141 12.026 13.5885 12.1016 13.2344 12.1016Z" fill="black"/>
</svg>
