<svg width="18" height="18" viewBox="0 0 18 18" fill="none" xmlns="http://www.w3.org/2000/svg">
<rect width="18" height="18" rx="9" fill="#DDF5FF"/>
<path d="M9 15.25C8.14583 15.25 7.33854 15.0859 6.57812 14.7578C5.81771 14.4297 5.15365 13.9818 4.58594 13.4141C4.01823 12.8464 3.57031 12.1823 3.24219 11.4219C2.91406 10.6615 2.75 9.85417 2.75 9C2.75 8.13542 2.91406 7.32552 3.24219 6.57031C3.57031 5.8151 4.01823 5.15365 4.58594 4.58594C5.15365 4.01823 5.81771 3.57031 6.57812 3.24219C7.33854 2.91406 8.14583 2.75 9 2.75C9.86458 2.75 10.6745 2.91406 11.4297 3.24219C12.1849 3.57031 12.8464 4.01823 13.4141 4.58594C13.9818 5.15365 14.4297 5.8151 14.7578 6.57031C15.0859 7.32552 15.25 8.13542 15.25 9C15.25 9.85417 15.0859 10.6615 14.7578 11.4219C14.4297 12.1823 13.9818 12.8464 13.4141 13.4141C12.8464 13.9818 12.1849 14.4297 11.4297 14.7578C10.6745 15.0859 9.86458 15.25 9 15.25ZM9 13.9688C9.27083 13.5938 9.50521 13.2031 9.70312 12.7969C9.90104 12.3906 10.0625 11.9583 10.1875 11.5H7.8125C7.9375 11.9583 8.09896 12.3906 8.29688 12.7969C8.49479 13.2031 8.72917 13.5938 9 13.9688ZM7.375 13.7188C7.1875 13.375 7.02344 13.0182 6.88281 12.6484C6.74219 12.2786 6.625 11.8958 6.53125 11.5H4.6875C4.98958 12.0208 5.36719 12.474 5.82031 12.8594C6.27344 13.2448 6.79167 13.5313 7.375 13.7188ZM10.625 13.7188C11.2083 13.5313 11.7266 13.2448 12.1797 12.8594C12.6328 12.474 13.0104 12.0208 13.3125 11.5H11.4688C11.375 11.8958 11.2578 12.2786 11.1172 12.6484C10.9766 13.0182 10.8125 13.375 10.625 13.7188ZM4.15625 10.25H6.28125C6.25 10.0417 6.22656 9.83594 6.21094 9.63281C6.19531 9.42969 6.1875 9.21875 6.1875 9C6.1875 8.78125 6.19531 8.57031 6.21094 8.36719C6.22656 8.16406 6.25 7.95833 6.28125 7.75H4.15625C4.10417 7.95833 4.0651 8.16406 4.03906 8.36719C4.01302 8.57031 4 8.78125 4 9C4 9.21875 4.01302 9.42969 4.03906 9.63281C4.0651 9.83594 4.10417 10.0417 4.15625 10.25ZM7.53125 10.25H10.4688C10.5 10.0417 10.5234 9.83594 10.5391 9.63281C10.5547 9.42969 10.5625 9.21875 10.5625 9C10.5625 8.78125 10.5547 8.57031 10.5391 8.36719C10.5234 8.16406 10.5 7.95833 10.4688 7.75H7.53125C7.5 7.95833 7.47656 8.16406 7.46094 8.36719C7.44531 8.57031 7.4375 8.78125 7.4375 9C7.4375 9.21875 7.44531 9.42969 7.46094 9.63281C7.47656 9.83594 7.5 10.0417 7.53125 10.25ZM11.7188 10.25H13.8438C13.8958 10.0417 13.9349 9.83594 13.9609 9.63281C13.987 9.42969 14 9.21875 14 9C14 8.78125 13.987 8.57031 13.9609 8.36719C13.9349 8.16406 13.8958 7.95833 13.8438 7.75H11.7188C11.75 7.95833 11.7734 8.16406 11.7891 8.36719C11.8047 8.57031 11.8125 8.78125 11.8125 9C11.8125 9.21875 11.8047 9.42969 11.7891 9.63281C11.7734 9.83594 11.75 10.0417 11.7188 10.25ZM11.4688 6.5H13.3125C13.0104 5.97917 12.6328 5.52604 12.1797 5.14062C11.7266 4.75521 11.2083 4.46875 10.625 4.28125C10.8125 4.625 10.9766 4.98177 11.1172 5.35156C11.2578 5.72135 11.375 6.10417 11.4688 6.5ZM7.8125 6.5H10.1875C10.0625 6.04167 9.90104 5.60938 9.70312 5.20312C9.50521 4.79688 9.27083 4.40625 9 4.03125C8.72917 4.40625 8.49479 4.79688 8.29688 5.20312C8.09896 5.60938 7.9375 6.04167 7.8125 6.5ZM4.6875 6.5H6.53125C6.625 6.10417 6.74219 5.72135 6.88281 5.35156C7.02344 4.98177 7.1875 4.625 7.375 4.28125C6.79167 4.46875 6.27344 4.75521 5.82031 5.14062C5.36719 5.52604 4.98958 5.97917 4.6875 6.5Z" fill="#63D3FF"/>
</svg>
