<svg width="18" height="18" viewBox="0 0 18 18" fill="none" xmlns="http://www.w3.org/2000/svg">
<rect width="18" height="18" rx="9" fill="#C2FBBD"/>
<g clip-path="url(#clip0_1_735)">
<path d="M1.5 14V12.2656C1.5 11.9115 1.58854 11.5833 1.76563 11.2813C1.94271 10.9792 2.1875 10.75 2.5 10.5938C2.64583 10.5208 2.78646 10.4531 2.92188 10.3906C3.06771 10.3281 3.21875 10.2708 3.375 10.2188V14H1.5ZM4 9.625C3.47917 9.625 3.03646 9.44271 2.67188 9.07813C2.30729 8.71354 2.125 8.27083 2.125 7.75C2.125 7.22917 2.30729 6.78646 2.67188 6.42187C3.03646 6.05729 3.47917 5.875 4 5.875C4.52083 5.875 4.96354 6.05729 5.32812 6.42187C5.69271 6.78646 5.875 7.22917 5.875 7.75C5.875 8.27083 5.69271 8.71354 5.32812 9.07813C4.96354 9.44271 4.52083 9.625 4 9.625ZM4 8.375C4.17708 8.375 4.32292 8.31771 4.4375 8.20312C4.5625 8.07813 4.625 7.92708 4.625 7.75C4.625 7.57292 4.5625 7.42708 4.4375 7.3125C4.32292 7.1875 4.17708 7.125 4 7.125C3.82292 7.125 3.67188 7.1875 3.54688 7.3125C3.43229 7.42708 3.375 7.57292 3.375 7.75C3.375 7.92708 3.43229 8.07813 3.54688 8.20312C3.67188 8.31771 3.82292 8.375 4 8.375ZM4 14V12.25C4 11.8958 4.08854 11.5729 4.26562 11.2813C4.45313 10.9792 4.69792 10.75 5 10.5938C5.64583 10.2708 6.30208 10.0313 6.96875 9.875C7.63542 9.70833 8.3125 9.625 9 9.625C9.6875 9.625 10.3646 9.70833 11.0312 9.875C11.6979 10.0313 12.3542 10.2708 13 10.5938C13.3021 10.75 13.5417 10.9792 13.7188 11.2813C13.9063 11.5729 14 11.8958 14 12.25V14H4ZM5.25 12.75H12.75V12.25C12.75 12.1354 12.7188 12.0313 12.6562 11.9375C12.6042 11.8438 12.5312 11.7708 12.4375 11.7187C11.875 11.4375 11.3073 11.2292 10.7344 11.0938C10.1615 10.9479 9.58333 10.875 9 10.875C8.41667 10.875 7.83854 10.9479 7.26562 11.0938C6.69271 11.2292 6.125 11.4375 5.5625 11.7187C5.46875 11.7708 5.39062 11.8438 5.32812 11.9375C5.27604 12.0313 5.25 12.1354 5.25 12.25V12.75ZM9 9C8.3125 9 7.72396 8.75521 7.23438 8.26562C6.74479 7.77604 6.5 7.1875 6.5 6.5C6.5 5.8125 6.74479 5.22396 7.23438 4.73438C7.72396 4.24479 8.3125 4 9 4C9.6875 4 10.276 4.24479 10.7656 4.73438C11.2552 5.22396 11.5 5.8125 11.5 6.5C11.5 7.1875 11.2552 7.77604 10.7656 8.26562C10.276 8.75521 9.6875 9 9 9ZM9 7.75C9.34375 7.75 9.63542 7.63021 9.875 7.39062C10.125 7.14063 10.25 6.84375 10.25 6.5C10.25 6.15625 10.125 5.86458 9.875 5.625C9.63542 5.375 9.34375 5.25 9 5.25C8.65625 5.25 8.35938 5.375 8.10938 5.625C7.86979 5.86458 7.75 6.15625 7.75 6.5C7.75 6.84375 7.86979 7.14063 8.10938 7.39062C8.35938 7.63021 8.65625 7.75 9 7.75ZM14 9.625C13.4792 9.625 13.0365 9.44271 12.6719 9.07813C12.3073 8.71354 12.125 8.27083 12.125 7.75C12.125 7.22917 12.3073 6.78646 12.6719 6.42187C13.0365 6.05729 13.4792 5.875 14 5.875C14.5208 5.875 14.9635 6.05729 15.3281 6.42187C15.6927 6.78646 15.875 7.22917 15.875 7.75C15.875 8.27083 15.6927 8.71354 15.3281 9.07813C14.9635 9.44271 14.5208 9.625 14 9.625ZM14 8.375C14.1771 8.375 14.3229 8.31771 14.4375 8.20312C14.5625 8.07813 14.625 7.92708 14.625 7.75C14.625 7.57292 14.5625 7.42708 14.4375 7.3125C14.3229 7.1875 14.1771 7.125 14 7.125C13.8229 7.125 13.6719 7.1875 13.5469 7.3125C13.4323 7.42708 13.375 7.57292 13.375 7.75C13.375 7.92708 13.4323 8.07813 13.5469 8.20312C13.6719 8.31771 13.8229 8.375 14 8.375ZM14.625 14V10.2188C14.7813 10.2708 14.9271 10.3281 15.0625 10.3906C15.2083 10.4531 15.3542 10.5208 15.5 10.5938C15.8125 10.75 16.0573 10.9792 16.2344 11.2813C16.4115 11.5833 16.5 11.9115 16.5 12.2656V14H14.625Z" fill="#12B303"/>
</g>
<defs>
<clipPath id="clip0_1_735">
<rect width="15" height="15" fill="white" transform="translate(1.5 1.5)"/>
</clipPath>
</defs>
</svg>
