<svg width="18" height="18" viewBox="0 0 18 18" fill="none" xmlns="http://www.w3.org/2000/svg">
<rect width="18" height="18" rx="9" fill="#FFEAEA"/>
<path d="M5.15625 12.1875C5.6875 11.7812 6.28125 11.4609 6.9375 11.2266C7.59375 10.9922 8.28125 10.875 9 10.875C9.71875 10.875 10.4062 10.9922 11.0625 11.2266C11.7188 11.4609 12.3125 11.7812 12.8438 12.1875C13.2083 11.7604 13.4922 11.276 13.6953 10.7344C13.8984 10.1927 14 9.61458 14 9C14 7.61458 13.513 6.4349 12.5391 5.46094C11.5651 4.48698 10.3854 4 9 4C7.61458 4 6.4349 4.48698 5.46094 5.46094C4.48698 6.4349 4 7.61458 4 9C4 9.61458 4.10156 10.1927 4.30469 10.7344C4.50781 11.276 4.79167 11.7604 5.15625 12.1875ZM9 9.625C8.38542 9.625 7.86719 9.41406 7.44531 8.99219C7.02344 8.57031 6.8125 8.05208 6.8125 7.4375C6.8125 6.82292 7.02344 6.30469 7.44531 5.88281C7.86719 5.46094 8.38542 5.25 9 5.25C9.61458 5.25 10.1328 5.46094 10.5547 5.88281C10.9766 6.30469 11.1875 6.82292 11.1875 7.4375C11.1875 8.05208 10.9766 8.57031 10.5547 8.99219C10.1328 9.41406 9.61458 9.625 9 9.625ZM9 15.25C8.13542 15.25 7.32292 15.0859 6.5625 14.7578C5.80208 14.4297 5.14062 13.9844 4.57812 13.4219C4.01562 12.8594 3.57031 12.1979 3.24219 11.4375C2.91406 10.6771 2.75 9.86458 2.75 9C2.75 8.13542 2.91406 7.32292 3.24219 6.5625C3.57031 5.80208 4.01562 5.14062 4.57812 4.57812C5.14062 4.01562 5.80208 3.57031 6.5625 3.24219C7.32292 2.91406 8.13542 2.75 9 2.75C9.86458 2.75 10.6771 2.91406 11.4375 3.24219C12.1979 3.57031 12.8594 4.01562 13.4219 4.57812C13.9844 5.14062 14.4297 5.80208 14.7578 6.5625C15.0859 7.32292 15.25 8.13542 15.25 9C15.25 9.86458 15.0859 10.6771 14.7578 11.4375C14.4297 12.1979 13.9844 12.8594 13.4219 13.4219C12.8594 13.9844 12.1979 14.4297 11.4375 14.7578C10.6771 15.0859 9.86458 15.25 9 15.25Z" fill="#FB8B8B"/>
</svg>
