<svg width="12" height="12" viewBox="0 0 12 12" fill="none" xmlns="http://www.w3.org/2000/svg">
<rect width="12" height="12" rx="6" fill="white"/>
<path d="M4.048 2.78L4.632 2.948C4.488 3.24667 4.31733 3.54 4.12 3.828C3.92267 4.11067 3.712 4.37467 3.488 4.62C3.26933 4.86533 3.048 5.08133 2.824 5.268C2.792 5.23067 2.744 5.188 2.68 5.14C2.62133 5.08667 2.56 5.036 2.496 4.988C2.43733 4.94 2.384 4.90267 2.336 4.876C2.67733 4.62 3 4.308 3.304 3.94C3.608 3.572 3.856 3.18533 4.048 2.78ZM3.768 3.7H9.28V4.244H3.568L3.768 3.7ZM2.432 5.588H9.576V6.14H2.432V5.588ZM2.552 7.5H9.472V8.052H2.552V7.5ZM4.976 3.884H5.504V7.764H4.976V3.884ZM3.552 3.884H4.088V7.788H3.552V3.884ZM6.424 3.884H6.944V7.788H6.424V3.884ZM7.888 3.884H8.448V7.788H7.888V3.884ZM4.76 8.596L5.312 8.54C5.36533 8.77467 5.41067 9.028 5.448 9.3C5.48533 9.572 5.50667 9.80133 5.512 9.988L4.928 10.068C4.928 9.94 4.92 9.79067 4.904 9.62C4.89333 9.45467 4.87467 9.28133 4.848 9.1C4.82667 8.91867 4.79733 8.75067 4.76 8.596ZM6.392 8.596L6.952 8.492C7.02667 8.64667 7.09867 8.81467 7.168 8.996C7.23733 9.172 7.29867 9.34267 7.352 9.508C7.40533 9.67333 7.44533 9.82 7.472 9.948L6.88 10.076C6.84267 9.884 6.77867 9.64933 6.688 9.372C6.59733 9.09467 6.49867 8.836 6.392 8.596ZM8.024 8.54L8.592 8.356C8.72533 8.51067 8.86133 8.684 9 8.876C9.13867 9.068 9.26667 9.25733 9.384 9.444C9.50667 9.62533 9.60267 9.79067 9.672 9.94L9.08 10.156C9.016 10.012 8.92533 9.84667 8.808 9.66C8.696 9.47333 8.57067 9.28133 8.432 9.084C8.29333 8.88667 8.15733 8.70533 8.024 8.54ZM3.36 8.388L3.936 8.532C3.82933 8.83067 3.69067 9.12667 3.52 9.42C3.34933 9.71333 3.15467 9.956 2.936 10.148L2.376 9.916C2.584 9.74533 2.776 9.52133 2.952 9.244C3.128 8.96667 3.264 8.68133 3.36 8.388Z" fill="black"/>
</svg>
