<svg width="12" height="12" viewBox="0 0 12 12" fill="none" xmlns="http://www.w3.org/2000/svg">
<rect width="12" height="12" rx="6" fill="#D9D9D9"/>
<path d="M2.496 6.068H9.536V6.66H2.496V6.068ZM3.064 4.092H8.992V4.684H3.064V4.092ZM5.672 2.788H6.304V10.14H5.672V2.788ZM5.52 6.372L6.032 6.588C5.84533 6.908 5.624 7.22 5.368 7.524C5.112 7.828 4.83733 8.116 4.544 8.388C4.256 8.65467 3.95467 8.9 3.64 9.124C3.33067 9.34267 3.02133 9.532 2.712 9.692C2.67467 9.644 2.62933 9.588 2.576 9.524C2.528 9.46 2.47733 9.39867 2.424 9.34C2.37067 9.276 2.32 9.22533 2.272 9.188C2.576 9.04933 2.88267 8.87867 3.192 8.676C3.50667 8.47333 3.808 8.24933 4.096 8.004C4.384 7.75333 4.648 7.48933 4.888 7.212C5.13333 6.93467 5.344 6.65467 5.52 6.372ZM6.456 6.372C6.632 6.65467 6.84267 6.93467 7.088 7.212C7.33867 7.484 7.608 7.748 7.896 8.004C8.184 8.25467 8.48533 8.48133 8.8 8.684C9.11467 8.88133 9.424 9.04667 9.728 9.18C9.68533 9.22267 9.63467 9.27333 9.576 9.332C9.52267 9.39067 9.46933 9.452 9.416 9.516C9.368 9.58 9.32533 9.64133 9.288 9.7C8.984 9.54 8.67467 9.348 8.36 9.124C8.04533 8.9 7.74133 8.652 7.448 8.38C7.15467 8.108 6.88 7.82 6.624 7.516C6.37333 7.212 6.152 6.90267 5.96 6.588L6.456 6.372Z" fill="black"/>
</svg>
