<svg width="12" height="12" viewBox="0 0 12 12" fill="none" xmlns="http://www.w3.org/2000/svg">
<rect width="12" height="12" rx="6" fill="#FBAF8B"/>
<path d="M6.36719 6.27344C6.36719 6.32552 6.39323 6.35156 6.44531 6.35156H8.36719C8.41927 6.35156 8.44531 6.32552 8.44531 6.27344V4.49219C8.44531 4.4401 8.41927 4.41406 8.36719 4.41406H6.44531C6.39323 4.41406 6.36719 4.4401 6.36719 4.49219V6.27344ZM3.52344 6.27344C3.52344 6.32552 3.54948 6.35156 3.60156 6.35156H5.51562C5.56771 6.35156 5.59375 6.32552 5.59375 6.27344V4.49219C5.59375 4.4401 5.56771 4.41406 5.51562 4.41406H3.60156C3.54948 4.41406 3.52344 4.4401 3.52344 4.49219V6.27344ZM6.36719 3.60938C6.36719 3.66146 6.39323 3.6875 6.44531 3.6875H8.54688C8.73438 3.6875 8.89323 3.75521 9.02344 3.89062C9.15885 4.02083 9.22656 4.17969 9.22656 4.36719V7.125C9.22656 7.22917 9.1875 7.32031 9.10938 7.39844C9.03646 7.47656 8.94531 7.51562 8.83594 7.51562C8.72656 7.51562 8.63281 7.47656 8.55469 7.39844C8.48177 7.32031 8.44531 7.22917 8.44531 7.125C8.44531 7.09375 8.43229 7.07812 8.40625 7.07812H6.44531C6.39323 7.07812 6.36719 7.10417 6.36719 7.15625V9.23438C6.36719 9.34896 6.32812 9.44271 6.25 9.51562C6.17708 9.58854 6.08594 9.625 5.97656 9.625C5.8724 9.625 5.78125 9.58594 5.70312 9.50781C5.63021 9.4349 5.59375 9.34375 5.59375 9.23438V7.15625C5.59375 7.10417 5.56771 7.07812 5.51562 7.07812H3.57031C3.53906 7.07812 3.52344 7.09375 3.52344 7.125V7.17969C3.52344 7.28385 3.48698 7.3724 3.41406 7.44531C3.34115 7.51823 3.2526 7.55469 3.14844 7.55469C3.04427 7.55469 2.95573 7.51823 2.88281 7.44531C2.8099 7.3724 2.77344 7.28385 2.77344 7.17969V4.36719C2.77344 4.17969 2.83854 4.02083 2.96875 3.89062C3.10417 3.75521 3.26562 3.6875 3.45312 3.6875H5.51562C5.56771 3.6875 5.59375 3.66146 5.59375 3.60938V2.6875C5.59375 2.57292 5.63021 2.47917 5.70312 2.40625C5.78125 2.33333 5.8724 2.29688 5.97656 2.29688C6.08594 2.29688 6.17708 2.33594 6.25 2.41406C6.32812 2.48698 6.36719 2.57812 6.36719 2.6875V3.60938Z" fill="black"/>
</svg>
