<svg width="12" height="12" viewBox="0 0 12 12" fill="none" xmlns="http://www.w3.org/2000/svg">
<rect width="12" height="12" rx="6" fill="#8BFB93"/>
<path d="M3.91406 2.65625C3.95573 2.5625 4.02083 2.49219 4.10938 2.44531C4.16667 2.41927 4.22396 2.40625 4.28125 2.40625C4.31771 2.40625 4.35677 2.41146 4.39844 2.42188C4.49219 2.45312 4.5599 2.51302 4.60156 2.60156C4.6224 2.64844 4.63281 2.69531 4.63281 2.74219C4.63281 2.78385 4.625 2.82552 4.60938 2.86719C4.43229 3.29948 4.22656 3.72656 3.99219 4.14844C3.96615 4.19531 3.95312 4.24479 3.95312 4.29688V9.26562C3.95312 9.35938 3.91667 9.4401 3.84375 9.50781C3.77604 9.58073 3.69271 9.61719 3.59375 9.61719C3.5 9.61719 3.41927 9.58073 3.35156 9.50781C3.28385 9.4401 3.25 9.35938 3.25 9.26562V5.39844C3.25 5.38802 3.24219 5.38021 3.22656 5.375C3.21615 5.36979 3.20833 5.3724 3.20312 5.38281C3.08333 5.53906 2.96354 5.6875 2.84375 5.82812C2.78646 5.89062 2.71875 5.92448 2.64062 5.92969C2.625 5.92969 2.60938 5.92969 2.59375 5.92969C2.49479 5.91406 2.41927 5.86198 2.36719 5.77344C2.32031 5.67969 2.29688 5.58333 2.29688 5.48438C2.29688 5.46354 2.29688 5.4401 2.29688 5.41406C2.3125 5.28906 2.36198 5.17969 2.44531 5.08594C3.03385 4.40885 3.52344 3.59896 3.91406 2.65625ZM4.97656 9.44531C4.88802 9.44531 4.8099 9.41146 4.74219 9.34375C4.67969 9.28125 4.64844 9.20312 4.64844 9.10938C4.64844 9.02083 4.67969 8.94531 4.74219 8.88281C4.8099 8.8151 4.88802 8.78125 4.97656 8.78125H7.60938C7.70312 8.78125 7.78125 8.8151 7.84375 8.88281C7.91146 8.94531 7.94531 9.02083 7.94531 9.10938C7.94531 9.20312 7.91146 9.28125 7.84375 9.34375C7.78125 9.41146 7.70312 9.44531 7.60938 9.44531H4.97656ZM5.64844 4.9375C5.64844 4.98958 5.67448 5.01562 5.72656 5.01562H7.07031C7.09115 5.01562 7.10938 5.00781 7.125 4.99219C7.14062 4.97656 7.14844 4.95833 7.14844 4.9375C7.11719 4.57292 7.09375 4.15625 7.07812 3.6875C7.07292 3.66667 7.0625 3.65104 7.04688 3.64062C7.03125 3.625 7.01302 3.61719 6.99219 3.61719C6.58594 3.67969 6.16406 3.73698 5.72656 3.78906C5.67448 3.79427 5.64844 3.82292 5.64844 3.875V4.9375ZM9.5625 5.11719C9.63021 5.17969 9.66406 5.25781 9.66406 5.35156C9.66406 5.44531 9.63021 5.52604 9.5625 5.59375C9.5 5.65625 9.42188 5.6875 9.32812 5.6875H8.03906C8.01823 5.6875 8 5.69531 7.98438 5.71094C7.97396 5.72656 7.96875 5.74479 7.96875 5.76562C8.08333 6.60417 8.23438 7.28906 8.42188 7.82031C8.60938 8.35156 8.79948 8.61719 8.99219 8.61719C9.10677 8.61719 9.18229 8.3724 9.21875 7.88281C9.22396 7.8099 9.25781 7.76042 9.32031 7.73438C9.38802 7.70312 9.45312 7.70833 9.51562 7.75C9.60938 7.8125 9.67969 7.88802 9.72656 7.97656C9.76823 8.04948 9.78906 8.125 9.78906 8.20312C9.78906 8.22396 9.78646 8.2474 9.78125 8.27344C9.72396 8.6849 9.63021 8.96615 9.5 9.11719C9.36979 9.26823 9.17969 9.34375 8.92969 9.34375C8.71094 9.34375 8.50781 9.2526 8.32031 9.07031C8.13802 8.89323 7.97656 8.64062 7.83594 8.3125C7.70052 7.98438 7.58333 7.60938 7.48438 7.1875C7.38542 6.76562 7.30208 6.29167 7.23438 5.76562C7.22917 5.71354 7.20052 5.6875 7.14844 5.6875H5.72656C5.67448 5.6875 5.64844 5.71354 5.64844 5.76562V7.4375C5.64844 7.45312 5.65625 7.46615 5.67188 7.47656C5.6875 7.48698 5.70573 7.49219 5.72656 7.49219C6.03906 7.44531 6.45573 7.38021 6.97656 7.29688C6.9974 7.29167 7.01562 7.28906 7.03125 7.28906C7.09896 7.28906 7.16146 7.3125 7.21875 7.35938C7.29167 7.41667 7.32812 7.49479 7.32812 7.59375C7.32812 7.68229 7.29948 7.76042 7.24219 7.82812C7.1849 7.90104 7.10938 7.94792 7.01562 7.96875C6.84375 8 6.50781 8.0599 6.00781 8.14844C5.51302 8.23698 5.14583 8.30208 4.90625 8.34375C4.88021 8.34375 4.85417 8.34375 4.82812 8.34375C4.75521 8.34375 4.6901 8.32292 4.63281 8.28125C4.54948 8.22396 4.49479 8.14844 4.46875 8.05469C4.46354 8.02865 4.46094 8.0026 4.46094 7.97656C4.46094 7.90885 4.48177 7.84635 4.52344 7.78906C4.57552 7.71094 4.64844 7.66406 4.74219 7.64844L4.86719 7.63281C4.90365 7.6276 4.92188 7.60677 4.92188 7.57031V3.52344C4.92188 3.40365 4.96875 3.3099 5.0625 3.24219C5.125 3.19531 5.1901 3.17188 5.25781 3.17188C5.29427 3.17188 5.33333 3.17969 5.375 3.19531C5.40625 3.20573 5.4401 3.20833 5.47656 3.20312C6.65885 3.05208 7.6224 2.86979 8.36719 2.65625C8.4349 2.63542 8.5 2.625 8.5625 2.625C8.61458 2.625 8.66927 2.63281 8.72656 2.64844C8.84635 2.67448 8.95052 2.73177 9.03906 2.82031C9.10156 2.88281 9.11979 2.95833 9.09375 3.04688C9.07292 3.13542 9.02083 3.19271 8.9375 3.21875C8.59896 3.30729 8.25 3.38802 7.89062 3.46094C7.83854 3.46615 7.8151 3.49479 7.82031 3.54688C7.82552 4.02604 7.84635 4.48958 7.88281 4.9375C7.88802 4.98958 7.91667 5.01562 7.96875 5.01562H9.32812C9.42188 5.01562 9.5 5.04948 9.5625 5.11719Z" fill="black"/>
</svg>
