<svg width="12" height="12" viewBox="0 0 12 12" fill="none" xmlns="http://www.w3.org/2000/svg">
<rect width="12" height="12" rx="6" fill="#FB8B8B"/>
<path d="M6.77344 8.22656C6.82552 8.22656 6.85156 8.20052 6.85156 8.14844V7.625C6.85156 7.57292 6.82552 7.54688 6.77344 7.54688H5.21094C5.15885 7.54688 5.13281 7.57292 5.13281 7.625V8.14844C5.13281 8.20052 5.15885 8.22656 5.21094 8.22656H6.77344ZM8.49219 5.95312C8.67969 5.95312 8.84115 6.02083 8.97656 6.15625C9.11198 6.28646 9.17969 6.44531 9.17969 6.63281V8.60938C9.17969 8.80208 9.15365 8.95312 9.10156 9.0625C9.04948 9.17188 8.95573 9.25521 8.82031 9.3125C8.6849 9.36458 8.46875 9.40104 8.17188 9.42188C8.15625 9.42188 8.13542 9.42188 8.10938 9.42188C7.94792 9.42188 7.79948 9.36979 7.66406 9.26562C7.51302 9.15104 7.39323 9.0026 7.30469 8.82031C7.28385 8.77344 7.2474 8.75 7.19531 8.75H5.17188C5.14583 8.75 5.13281 8.76302 5.13281 8.78906V8.8125C5.13281 8.90104 5.10156 8.97656 5.03906 9.03906C4.97656 9.10156 4.89844 9.13281 4.80469 9.13281C4.71615 9.13281 4.64062 9.10156 4.57812 9.03906C4.51562 8.97656 4.48438 8.90104 4.48438 8.8125V7.70312C4.48438 7.51562 4.54948 7.35677 4.67969 7.22656C4.8151 7.09115 4.97917 7.02344 5.17188 7.02344H6.82812C7.01562 7.02344 7.17708 7.09115 7.3125 7.22656C7.44792 7.35677 7.51562 7.51562 7.51562 7.70312V8.67188C7.51562 8.72396 7.54167 8.75 7.59375 8.75C7.72396 8.75521 7.83594 8.75781 7.92969 8.75781C8.02344 8.75781 8.09896 8.75521 8.15625 8.75C8.27083 8.74479 8.34375 8.73438 8.375 8.71875C8.41146 8.69792 8.42969 8.65885 8.42969 8.60156V6.65625C8.42969 6.60417 8.40365 6.57812 8.35156 6.57812H3.6875C3.63542 6.57812 3.60938 6.60417 3.60938 6.65625V9.09375C3.60938 9.19271 3.57292 9.27604 3.5 9.34375C3.43229 9.41667 3.34635 9.45312 3.24219 9.45312C3.14323 9.45312 3.05729 9.41667 2.98438 9.34375C2.91667 9.27604 2.88281 9.19271 2.88281 9.09375V6.63281C2.88281 6.44531 2.94792 6.28646 3.07812 6.15625C3.21354 6.02083 3.375 5.95312 3.5625 5.95312H8.49219ZM7.32031 5.01562C7.3724 5.01562 7.39844 4.98958 7.39844 4.9375V4.44531C7.39844 4.39323 7.3724 4.36719 7.32031 4.36719H4.64844C4.59635 4.36719 4.57031 4.39323 4.57031 4.44531V4.9375C4.57031 4.98958 4.59635 5.01562 4.64844 5.01562H7.32031ZM3.85156 4.53125C3.85156 4.34375 3.91667 4.1849 4.04688 4.05469C4.18229 3.91927 4.34375 3.85156 4.53125 3.85156H7.46875C7.65625 3.85156 7.8151 3.91927 7.94531 4.05469C8.08073 4.1849 8.14844 4.34375 8.14844 4.53125V4.84375C8.14844 5.03125 8.08073 5.19271 7.94531 5.32812C7.8151 5.45833 7.65625 5.52344 7.46875 5.52344H4.53125C4.34375 5.52344 4.18229 5.45833 4.04688 5.32812C3.91667 5.19271 3.85156 5.03125 3.85156 4.84375V4.53125ZM6.33594 2.75C6.33594 2.79688 6.35938 2.82031 6.40625 2.82031H9.125C9.21354 2.82031 9.28906 2.85156 9.35156 2.91406C9.41406 2.97656 9.44531 3.05469 9.44531 3.14844C9.44531 3.23698 9.41406 3.3125 9.35156 3.375C9.28906 3.4375 9.21354 3.46875 9.125 3.46875H2.875C2.78125 3.46875 2.70312 3.4375 2.64062 3.375C2.57812 3.3125 2.54688 3.23698 2.54688 3.14844C2.54688 3.05469 2.57812 2.97656 2.64062 2.91406C2.70312 2.85156 2.78125 2.82031 2.875 2.82031H5.50781C5.55469 2.82031 5.57812 2.79688 5.57812 2.75V2.48438C5.57812 2.36979 5.61458 2.27865 5.6875 2.21094C5.76042 2.13802 5.84896 2.10156 5.95312 2.10156C6.0625 2.10156 6.15365 2.13802 6.22656 2.21094C6.29948 2.28385 6.33594 2.375 6.33594 2.48438V2.75Z" fill="black"/>
</svg>
