<svg width="26" height="26" viewBox="0 0 26 26" fill="none" xmlns="http://www.w3.org/2000/svg">
<path fill-rule="evenodd" clip-rule="evenodd" d="M21.6641 6.67V4H19.2969V2H21.6641V0H23.6641V2H25.9688V4H23.6641V6.67H21.6641ZM15.0312 6.93555H5.03125C3.3744 6.93555 2.03125 8.2787 2.03125 9.93555V20.3437C2.03125 22.0006 3.3744 23.3437 5.03125 23.3437H15.0312C16.6881 23.3437 18.0312 22.0006 18.0312 20.3437V9.93555C18.0312 8.2787 16.6881 6.93555 15.0312 6.93555ZM5.03125 4.93555C2.26983 4.93555 0.03125 7.17413 0.03125 9.93555V20.3437C0.03125 23.1051 2.26983 25.3437 5.03125 25.3437H15.0312C17.7927 25.3437 20.0312 23.1051 20.0312 20.3437V9.93555C20.0312 7.17413 17.7927 4.93555 15.0312 4.93555H5.03125ZM16.5313 20.7519L12.2813 15.1397L8.5272 20.0971L6.28137 17.1805L3.53137 20.7519H8.03135L8.03134 20.7519H16.5313Z" fill="black"/>
</svg>
